<?xml version="1.0" encoding="iso-8859-1"?>
<!-- Uploaded to: SVG Repo, www.svgrepo.com, Generator: SVG Repo Mixer Tools -->
<svg height="800px" width="800px" version="1.1" id="Layer_1" xmlns="http://www.w3.org/2000/svg" xmlns:xlink="http://www.w3.org/1999/xlink" 
	 viewBox="0 0 512 512" xml:space="preserve">
<path style="fill:#FF9F99;" d="M39.219,314.475c-15.548,0-26.419-12.083-26.419-29.38v-204.8c0-17.024,11.11-29.38,26.419-29.38
	c4.941,0,9.993,1.271,15.01,3.78l147.772,73.89l-5.769,11.46c-2.807,5.589-4.233,11.332-4.233,17.05v51.2
	c0,5.717,1.425,11.46,4.241,17.058l5.751,11.46L54.221,310.694C49.212,313.203,44.16,314.475,39.219,314.475z"/>
<path style="fill:#BF655F;" d="M154.377,419.588l-74.274,8.542l89.796-175.275l33.246-16.623l6.17,4.079
	c6.315,4.181,13.611,6.391,21.094,6.391h27.307l-51.934,227.183L154.377,419.588z"/>
<path style="fill:#FF9F99;" d="M472.781,314.475c-4.941,0-9.993-1.271-15.01-3.78l-147.763-73.89l5.751-11.46
	c2.816-5.598,4.241-11.332,4.241-17.058v-51.2c0-5.717-1.425-11.46-4.233-17.05l-5.769-11.46l147.78-73.882
	c5.018-2.509,10.069-3.78,15.01-3.78c15.309,0,26.419,12.356,26.419,29.38v204.8C499.2,302.4,488.337,314.475,472.781,314.475z"/>
<path style="fill:#BF655F;" d="M254.293,246.694H281.6c7.484,0,14.771-2.21,21.094-6.391l6.17-4.079l33.246,16.623l89.796,175.283
	l-74.274-8.542l-51.396,54.289L254.293,246.694z"/>
<path style="fill:#FF877F;" d="M230.4,246.694c-21.171,0-38.4-17.229-38.4-38.4v-51.2c0-21.171,17.229-38.4,38.4-38.4h51.2
	c21.171,0,38.4,17.229,38.4,38.4v51.2c0,21.171-17.229,38.4-38.4,38.4H230.4z"/>
<path style="fill:#573A32;" d="M39.211,327.275c6.946,0,13.918-1.724,20.736-5.137l80.759-40.38L79.616,401.02
	c-4.309,8.405-3.635,18.492,1.741,26.249c3.072,4.437,7.398,7.697,12.288,9.481c3.669,1.34,7.654,1.835,11.682,1.374l44.151-5.077
	l30.558,32.273c2.782,2.935,6.161,5.12,9.83,6.451c4.89,1.783,10.3,2.065,15.505,0.64c9.105-2.492,16.111-9.788,18.21-18.987
	L256,311.582l32.418,141.833c2.099,9.199,9.105,16.503,18.21,18.987c5.205,1.425,10.615,1.143,15.505-0.64
	c3.669-1.34,7.049-3.516,9.83-6.451l30.558-32.273l44.151,5.077c4.019,0.461,8.013-0.043,11.682-1.374
	c4.89-1.783,9.216-5.043,12.288-9.481c5.376-7.757,6.05-17.852,1.741-26.249l-61.09-119.253l80.759,40.38
	c6.81,3.405,13.79,5.137,20.736,5.137c22.357,0,39.211-18.133,39.211-42.18v-204.8c0-24.047-16.862-42.18-39.211-42.18
	c-6.946,0-13.918,1.724-20.727,5.137l-142.31,71.151c-8.09-5.35-17.749-8.508-28.151-8.508h-51.2
	c-10.402,0-20.062,3.157-28.143,8.508L59.947,43.243c-6.81-3.405-13.79-5.129-20.736-5.129C16.862,38.114,0,56.247,0,80.294v204.8
	C0,309.141,16.862,327.275,39.211,327.275z M327.202,134.293l136.303-68.156c3.302-1.647,6.443-2.432,9.284-2.432
	c7.996,0.009,13.611,6.195,13.611,16.589v204.8c0,10.394-5.606,16.58-13.611,16.58c-2.842,0-5.982-0.777-9.284-2.432
	l-136.303-68.156c3.465-6.886,5.598-14.558,5.598-22.793v-51.2C332.8,148.86,330.667,141.188,327.202,134.293z M332.621,262.43
	L409.6,412.685l-56.866-6.545l-39.356,41.566l-43.025-188.211H281.6c10.402,0,20.062-3.157,28.143-8.508L332.621,262.43z
	 M204.8,157.094c0-14.14,11.46-25.6,25.6-25.6h51.2c14.14,0,25.6,11.46,25.6,25.6v51.2c0,14.14-11.46,25.6-25.6,25.6h-51.2
	c-14.14,0-25.6-11.46-25.6-25.6V157.094z M230.4,259.494h11.247l-43.025,188.22l-39.356-41.566l-56.866,6.537l76.979-150.263
	l22.878-11.443C210.338,256.337,219.998,259.494,230.4,259.494z M25.6,80.294c0-10.394,5.615-16.58,13.611-16.58
	c2.842,0,5.982,0.777,9.284,2.432l136.303,68.156c-3.465,6.886-5.598,14.558-5.598,22.793v51.2c0,8.235,2.133,15.906,5.598,22.801
	L48.495,299.243c-3.302,1.647-6.443,2.432-9.284,2.432c-7.996,0-13.611-6.187-13.611-16.58V80.294z"/>
</svg>